<svg xmlns="http://www.w3.org/2000/svg" xmlns:xlink="http://www.w3.org/1999/xlink" viewBox="0 0 189.33 39.61"><defs><style>.cls-1{fill:#231f20;}.cls-2{fill-rule:evenodd;fill:url(#linear-gradient);}</style><linearGradient id="linear-gradient" x1="126.98" y1="19.81" x2="189.33" y2="19.81" gradientUnits="userSpaceOnUse"><stop offset="0" stop-color="#e12b26"/><stop offset="1" stop-color="#f8951d"/></linearGradient></defs><title>Asset 3</title><g id="Layer_2" data-name="Layer 2"><g id="Layer_1-2" data-name="Layer 1"><path class="cls-1" d="M27.26,31.57,21.7,11l-5.62,20.6c-.44,1.56-.79,2.69-1,3.37a4.47,4.47,0,0,1-1.35,1.82,3.83,3.83,0,0,1-2.56.81A4.21,4.21,0,0,1,9,37.09a3.75,3.75,0,0,1-1.35-1.36,8.67,8.67,0,0,1-.84-2.08c-.22-.81-.41-1.55-.59-2.24L.52,8.28A13.32,13.32,0,0,1,0,5.21,3,3,0,0,1,.94,3,3.19,3.19,0,0,1,3.26,2,2.63,2.63,0,0,1,5.81,3.26,13.67,13.67,0,0,1,7,6.8l4.5,20.06,5-18.77a30.35,30.35,0,0,1,1-3.28A4.72,4.72,0,0,1,19,2.86,4.2,4.2,0,0,1,21.7,2a4,4,0,0,1,2.73.86,4.66,4.66,0,0,1,1.35,1.86c.25.67.59,1.78,1,3.33l5.09,18.77L36.38,6.8A20.54,20.54,0,0,1,37,4.34a3.93,3.93,0,0,1,1-1.6A2.89,2.89,0,0,1,40.08,2a3.26,3.26,0,0,1,2.31.9,3,3,0,0,1,1,2.27,15.08,15.08,0,0,1-.52,3.07L37.1,31.41c-.39,1.56-.71,2.71-1,3.43a4.59,4.59,0,0,1-1.31,1.91,3.81,3.81,0,0,1-2.62.82,3.87,3.87,0,0,1-2.55-.79A4.36,4.36,0,0,1,28.31,35C28.06,34.32,27.71,33.18,27.26,31.57Z"/><path class="cls-1" d="M63.66,2a18.27,18.27,0,0,1,9.17,2.17,14,14,0,0,1,5.8,6.16,21,21,0,0,1,2,9.39A22.88,22.88,0,0,1,79.52,27a15.63,15.63,0,0,1-3.23,5.65A14.24,14.24,0,0,1,71,36.31a19.18,19.18,0,0,1-7.19,1.26,18.89,18.89,0,0,1-7.22-1.3,14.28,14.28,0,0,1-5.32-3.67A15.5,15.5,0,0,1,48,26.91,22.92,22.92,0,0,1,47,19.71a22.11,22.11,0,0,1,1.13-7.26,15.59,15.59,0,0,1,3.3-5.63,14.24,14.24,0,0,1,5.24-3.55A19,19,0,0,1,63.66,2Zm9.89,17.67a16.21,16.21,0,0,0-1.22-6.54A9.1,9.1,0,0,0,68.85,9a9.54,9.54,0,0,0-5.19-1.42,9.32,9.32,0,0,0-3.86.79,8.5,8.5,0,0,0-3,2.28,10.93,10.93,0,0,0-2,3.83A17.46,17.46,0,0,0,54,19.71a17.82,17.82,0,0,0,.74,5.3,11,11,0,0,0,2.08,3.93,8.9,8.9,0,0,0,3.1,2.33,9.81,9.81,0,0,0,8.74-.56,9.29,9.29,0,0,0,3.56-4.13A15.85,15.85,0,0,0,73.55,19.71Z"/><path class="cls-1" d="M101.67,2a18.34,18.34,0,0,1,9.18,2.17,14,14,0,0,1,5.8,6.16,21.09,21.09,0,0,1,2,9.39A22.88,22.88,0,0,1,117.54,27a15.65,15.65,0,0,1-3.24,5.65A14.2,14.2,0,0,1,109,36.31a19.23,19.23,0,0,1-7.2,1.26,18.92,18.92,0,0,1-7.22-1.3,14.44,14.44,0,0,1-5.32-3.67,15.64,15.64,0,0,1-3.22-5.69A22.92,22.92,0,0,1,85,19.71a22.11,22.11,0,0,1,1.14-7.26,15.57,15.57,0,0,1,3.29-5.63,14.36,14.36,0,0,1,5.25-3.55A18.91,18.91,0,0,1,101.67,2Zm9.89,17.67a16,16,0,0,0-1.22-6.54A9.1,9.1,0,0,0,106.86,9a9.51,9.51,0,0,0-5.19-1.42,9.27,9.27,0,0,0-3.85.79,8.41,8.41,0,0,0-3,2.28,11.11,11.11,0,0,0-2,3.83A17.46,17.46,0,0,0,92,19.71a17.83,17.83,0,0,0,.73,5.3,11,11,0,0,0,2.09,3.93,9,9,0,0,0,3.09,2.33,9.83,9.83,0,0,0,8.75-.56,9.29,9.29,0,0,0,3.56-4.13A16,16,0,0,0,111.56,19.71Z"/><path class="cls-2" d="M147.23,2.14a4.28,4.28,0,1,0,0,4.28l24.42,0a13.42,13.42,0,0,1,12.54,8.76H159.9L156,11.34a2.05,2.05,0,0,0-.63-.44h-.08a1.94,1.94,0,0,0-.8-.16H135a3.84,3.84,0,0,0-3.71-2.14A4.56,4.56,0,0,0,127,12.85a4.56,4.56,0,0,0,4.28,4.28A3.84,3.84,0,0,0,135,15h18.66l3.87,3.87a2.14,2.14,0,0,0,1.65.63h8.31l-4.28,4.28h-7.89a4.29,4.29,0,1,0,0,4.29h8.77a2,2,0,0,0,.85-.18h0a2,2,0,0,0,.64-.44l7.94-7.94H185c0,.11,0,.22,0,.33h0a13.41,13.41,0,0,1-13.37,13.37H140.17a4.28,4.28,0,1,0,0,4.29l31.48,0a17.68,17.68,0,1,0,0-35.36Z"/></g></g></svg>